<svg width="1837" height="400" viewBox="0 0 1837 400" fill="none" xmlns="http://www.w3.org/2000/svg">
<g clip-path="url(#clip0_3390_9407)">
<path d="M138.168 106.3C135.558 108.034 132.716 104.46 134.993 102.308L233.594 9.10165C234.368 8.3705 233.962 7.07288 232.908 6.92396C223.934 5.65586 214.764 5 205.44 5H194.56C87.1075 5 0 92.1075 0 199.56C0 249.981 19.1801 295.923 50.6422 330.487C51.1693 331.066 52.0883 331.033 52.5775 330.421L142.26 218.297C143.03 217.335 142.128 215.947 140.936 216.26L49.988 240.119C48.6849 240.461 47.806 238.817 48.8142 237.923L288.469 25.5176C289.153 24.9114 288.999 23.8047 288.172 23.4155C283.323 21.1339 278.364 19.0466 273.306 17.1637C272.923 17.0213 272.495 17.0716 272.155 17.2976L138.168 106.3Z" fill="#2563EB"/>
<path d="M165.836 389.937C165.064 390.667 165.467 391.962 166.518 392.114C175.675 393.436 185.037 394.12 194.56 394.12H205.44C312.893 394.12 400 307.013 400 199.56C400 148.975 380.695 102.898 349.05 68.2964C348.523 67.7193 347.605 67.7534 347.117 68.3641L257.422 180.503C256.652 181.466 257.554 182.854 258.746 182.541L349.694 158.681C350.997 158.339 351.876 159.983 350.868 160.877L111.088 373.393C110.405 373.999 110.557 375.104 111.382 375.494C116.209 377.78 121.145 379.873 126.18 381.764C126.563 381.908 126.992 381.858 127.334 381.631L261.514 292.5C264.124 290.766 266.966 294.34 264.689 296.493L165.836 389.937Z" fill="#2563EB"/>
<path d="M691.054 129.932L670.672 163.988C664.996 160.204 658.804 157.452 652.096 155.732C645.56 153.84 638.68 152.894 631.456 152.894C622.34 152.894 614.084 154.528 606.688 157.796C599.292 161.064 593.014 165.45 587.854 170.954C582.694 176.286 578.652 182.564 575.728 189.788C572.976 197.012 571.6 204.666 571.6 212.75C571.6 221.006 572.976 228.832 575.728 236.228C578.652 243.624 582.694 250.074 587.854 255.578C593.014 261.082 599.292 265.468 606.688 268.736C614.084 272.004 622.34 273.638 631.456 273.638C638.68 273.638 645.56 272.778 652.096 271.058C658.804 269.166 664.996 266.328 670.672 262.544L691.054 296.6C680.906 303.308 670.844 308.124 660.868 311.048C651.064 314.144 640.744 315.692 629.908 315.692C614.256 315.692 599.98 313.026 587.08 307.694C574.18 302.19 563.172 294.88 554.056 285.764C544.94 276.476 537.888 265.554 532.9 252.998C527.912 240.442 525.418 227.112 525.418 213.008C525.418 198.904 527.912 185.66 532.9 173.276C537.888 160.72 544.94 149.884 554.056 140.768C563.172 131.48 574.18 124.17 587.08 118.838C599.98 113.506 614.256 110.84 629.908 110.84C640.744 110.84 651.064 112.302 660.868 115.226C670.672 118.15 680.734 123.052 691.054 129.932ZM779.989 174.308C790.825 174.308 800.887 176.2 810.175 179.984C819.463 183.596 827.461 188.584 834.169 194.948C840.877 201.14 846.123 208.622 849.907 217.394C853.863 225.994 855.841 235.196 855.841 245C855.841 254.804 853.863 264.092 849.907 272.864C846.123 281.464 840.877 288.946 834.169 295.31C827.461 301.502 819.463 306.404 810.175 310.016C800.887 313.8 790.825 315.692 779.989 315.692C769.325 315.692 759.349 313.8 750.061 310.016C740.773 306.404 732.775 301.502 726.067 295.31C719.359 288.946 714.027 281.464 710.071 272.864C706.287 264.092 704.395 254.804 704.395 245C704.395 235.196 706.287 225.994 710.071 217.394C714.027 208.622 719.359 201.14 726.067 194.948C732.775 188.584 740.773 183.596 750.061 179.984C759.349 176.2 769.325 174.308 779.989 174.308ZM779.989 206.042C769.325 206.042 760.467 209.912 753.415 217.652C746.363 225.22 742.837 234.336 742.837 245C742.837 255.836 746.363 265.038 753.415 272.606C760.467 280.174 769.325 283.958 779.989 283.958C790.653 283.958 799.511 280.174 806.563 272.606C813.787 265.038 817.399 255.836 817.399 245C817.399 234.336 813.787 225.22 806.563 217.652C799.511 209.912 790.653 206.042 779.989 206.042ZM916.26 234.164V309.5H879.624V180.5H914.454V197.012C918.238 192.196 923.742 187.724 930.966 183.596C938.362 179.468 947.048 177.404 957.024 177.404C970.096 177.404 981.018 181.704 989.79 190.304C998.562 198.732 1002.95 210.342 1002.95 225.134V309.5H966.312V236.486C966.312 226.682 963.904 219.802 959.088 215.846C954.272 211.89 948.51 209.912 941.802 209.912C935.954 209.912 930.192 212.062 924.516 216.362C919.012 220.662 916.26 226.596 916.26 234.164ZM1092.19 211.202H1076.97V309.5H1040.59V211.202H1025.11V180.5H1040.59V139.478L1076.97 129.932V180.5H1092.19V211.202ZM1179.75 204.236C1171.66 204.236 1164.87 206.558 1159.37 211.202C1154.03 215.846 1150.34 222.382 1148.27 230.81H1211.22C1209.16 222.554 1205.38 216.104 1199.87 211.46C1194.37 206.644 1187.66 204.236 1179.75 204.236ZM1248.63 293.246C1241.75 299.61 1233.07 304.942 1222.58 309.242C1212.26 313.542 1200.22 315.692 1186.46 315.692C1174.24 315.692 1163.24 313.886 1153.43 310.274C1143.8 306.662 1135.63 301.76 1128.92 295.568C1122.21 289.204 1117.05 281.722 1113.44 273.122C1109.83 264.522 1108.02 255.148 1108.02 245C1108.02 234.852 1109.74 225.478 1113.18 216.878C1116.8 208.106 1121.78 200.624 1128.15 194.432C1134.51 188.068 1142.08 183.166 1150.85 179.726C1159.8 176.114 1169.6 174.308 1180.26 174.308C1190.07 174.308 1199.18 176.114 1207.61 179.726C1216.21 183.166 1223.61 188.068 1229.8 194.432C1235.99 200.624 1240.89 208.02 1244.51 216.62C1248.12 225.22 1249.92 234.594 1249.92 244.742V254.546H1147.24C1148.79 264.866 1153 272.864 1159.88 278.54C1166.93 284.044 1176.05 286.796 1187.23 286.796C1196 286.796 1203.74 285.334 1210.45 282.41C1217.33 279.486 1223.44 275.702 1228.77 271.058L1248.63 293.246ZM1310.06 234.164V309.5H1273.43V180.5H1308.26V197.012C1312.04 192.196 1317.54 187.724 1324.77 183.596C1332.16 179.468 1340.85 177.404 1350.83 177.404C1363.9 177.404 1374.82 181.704 1383.59 190.304C1392.36 198.732 1396.75 210.342 1396.75 225.134V309.5H1360.11V236.486C1360.11 226.682 1357.71 219.802 1352.89 215.846C1348.07 211.89 1342.31 209.912 1335.6 209.912C1329.76 209.912 1323.99 212.062 1318.32 216.362C1312.81 220.662 1310.06 226.596 1310.06 234.164ZM1485.99 211.202H1470.77V309.5H1434.39V211.202H1418.91V180.5H1434.39V139.478L1470.77 129.932V180.5H1485.99V211.202Z" fill="#06152D"/>
<path d="M1512.36 270.542H1554.93V309.5H1512.36V270.542ZM1700.37 246.032L1671.22 166.568L1641.8 246.032H1700.37ZM1723.85 309.5L1712.24 277.766H1629.94L1618.07 309.5H1576.53L1651.87 117.032H1691.6L1766.93 309.5H1723.85ZM1822.56 130.19V161.408H1785.15V130.19H1822.56ZM1822.04 180.5V309.5H1785.41V180.5H1822.04Z" fill="#2563EB"/>
</g>
<defs>
<clipPath id="clip0_3390_9407">
<rect width="1837" height="400" fill="white"/>
</clipPath>
</defs>
</svg>
